<svg xmlns="http://www.w3.org/2000/svg" viewBox="723 250 2650 3150">
  <defs>
    <style>
      .back { fill: #3D5A72 }
      .antenna { stroke: #6A9CAE }
      .middle { fill: #6A9CAE }
      .front { fill: #8EC0C8 }
      @media (prefers-color-scheme: dark) {
        .back { fill: #5A7A92 }
        .antenna { stroke: #7EB0BE }
        .middle { fill: #7EB0BE }
        .front { fill: #A2D4DC }
      }
    </style>
    <mask id="gaps" maskUnits="userSpaceOnUse" x="723" y="250" width="2650" height="3150">
      <rect x="723" y="250" width="2650" height="3150" fill="white"/>
      <path d="M2253,3300 L2333,1530 Q2333,1330 2533,1330 L2993,1330 Q3193,1330 3193,1530 L3273,3300 Z"
            fill="white" stroke="black" stroke-width="50"/>
      <path d="M1553,3300 L1633,930 Q1633,730 1833,730 L2293,730 Q2493,730 2493,930 L2573,3300 Z"
            fill="white" stroke="black" stroke-width="50"/>
      <path d="M823,3300 L903,1840 Q903,1640 1103,1640 L1563,1640 Q1763,1640 1763,1840 L1843,3300 Z"
            fill="white" stroke="black" stroke-width="50"/>
    </mask>
  </defs>
  <g mask="url(#gaps)">
    <path class="back" d="M2253,3300 L2333,1530 Q2333,1330 2533,1330 L2993,1330 Q3193,1330 3193,1530 L3273,3300 Z"/>
    <line class="antenna" x1="2063" y1="730" x2="2063" y2="350" stroke-width="32" stroke-linecap="round"/>
    <path class="middle" d="M1553,3300 L1633,930 Q1633,730 1833,730 L2293,730 Q2493,730 2493,930 L2573,3300 Z"/>
    <path class="front" d="M823,3300 L903,1840 Q903,1640 1103,1640 L1563,1640 Q1763,1640 1763,1840 L1843,3300 Z"/>
  </g>
</svg>
